<svg width="32" height="42" viewBox="0 0 32 42" fill="none" xmlns="http://www.w3.org/2000/svg">
<path d="M8.66667 0C6.09271 0 4 2.07402 4 4.625V32.375C4 34.926 6.09271 37 8.66667 37H27.3333C29.9073 37 32 34.926 32 32.375V11.5625H22.6667C21.376 11.5625 20.3333 10.5291 20.3333 9.25V0H8.66667ZM22.6667 0V9.25H32L22.6667 0ZM8.66667 18.5C8.66667 17.8867 8.9125 17.2985 9.35008 16.8648C9.78767 16.4311 10.3812 16.1875 11 16.1875C11.6188 16.1875 12.2123 16.4311 12.6499 16.8648C13.0875 17.2985 13.3333 17.8867 13.3333 18.5C13.3333 19.1133 13.0875 19.7015 12.6499 20.1352C12.2123 20.5689 11.6188 20.8125 11 20.8125C10.3812 20.8125 9.78767 20.5689 9.35008 20.1352C8.9125 19.7015 8.66667 19.1133 8.66667 18.5ZM19.75 20.8125C20.1365 20.8125 20.4937 21.0004 20.7125 21.3111L27.1292 30.5611C27.3771 30.9152 27.399 31.3777 27.2021 31.7535C27.0052 32.1293 26.6042 32.375 26.1667 32.375H19.75H16.8333H13.3333H9.83333C9.41042 32.375 9.02396 32.151 8.81979 31.7896C8.61562 31.4283 8.61562 30.9803 8.83437 30.6262L12.3344 24.8449C12.5458 24.498 12.925 24.2812 13.3333 24.2812C13.7417 24.2812 14.1208 24.4908 14.3323 24.8449L15.2656 26.3914L18.7875 21.3184C19.0062 21.0076 19.3635 20.8197 19.75 20.8197V20.8125Z" fill="#E6E6E6"/>
<path d="M7.84375 34.6562V34.1562H7.34375H5.59375C5.50622 34.1562 5.4375 34.0875 5.4375 34C5.4375 33.9125 5.50622 33.8438 5.59375 33.8438H7.34375H7.84375V33.3438V31.5938C7.84375 31.5062 7.91247 31.4375 8 31.4375C8.08753 31.4375 8.15625 31.5062 8.15625 31.5938V33.3438V33.8438H8.65625H10.4062C10.4938 33.8438 10.5625 33.9125 10.5625 34C10.5625 34.0875 10.4938 34.1562 10.4062 34.1562H8.65625H8.15625V34.6562V36.4062C8.15625 36.4938 8.08753 36.5625 8 36.5625C7.91247 36.5625 7.84375 36.4938 7.84375 36.4062V34.6562ZM8 41.5C9.98912 41.5 11.8968 40.7098 13.3033 39.3033C14.7098 37.8968 15.5 35.9891 15.5 34C15.5 32.0109 14.7098 30.1032 13.3033 28.6967C11.8968 27.2902 9.98912 26.5 8 26.5C6.01088 26.5 4.10322 27.2902 2.6967 28.6967C1.29018 30.1032 0.5 32.0109 0.5 34C0.5 35.9891 1.29018 37.8968 2.6967 39.3033C4.10322 40.7098 6.01088 41.5 8 41.5Z" fill="#E6E6E6" stroke="#1A1A1A"/>
</svg>
